<svg width="25" height="23" viewBox="0 0 25 23" fill="none" xmlns="http://www.w3.org/2000/svg">
<path id="Vector" d="M12.446 22.6398C12.3147 22.6399 12.1846 22.6141 12.0633 22.5639C11.9419 22.5136 11.8317 22.4398 11.739 22.3468L2.193 12.8008C-0.731 9.87681 -0.731 5.11881 2.193 2.19481C5.001 -0.615188 9.502 -0.728188 12.446 1.86281C15.388 -0.725188 19.889 -0.616188 22.699 2.19481C25.623 5.11881 25.623 9.87781 22.699 12.8008L13.153 22.3468C13.0603 22.4398 12.9501 22.5136 12.8287 22.5639C12.7074 22.6141 12.5773 22.6399 12.446 22.6398ZM7.497 1.99981C6.77467 1.99855 6.05919 2.13994 5.39164 2.41589C4.72409 2.69183 4.11761 3.09689 3.607 3.60781C2.57683 4.6399 1.99824 6.03857 1.99824 7.49681C1.99824 8.95505 2.57683 10.3537 3.607 11.3858L12.446 20.2248L21.285 11.3858C22.3152 10.3537 22.8938 8.95505 22.8938 7.49681C22.8938 6.03857 22.3152 4.6399 21.285 3.60781C20.2529 2.57764 18.8542 1.99905 17.396 1.99905C15.9378 1.99905 14.5391 2.57764 13.507 3.60781L13.153 3.96181C13.0602 4.05476 12.95 4.1285 12.8287 4.17881C12.7074 4.22912 12.5773 4.25501 12.446 4.25501C12.3147 4.25501 12.1846 4.22912 12.0633 4.17881C11.942 4.1285 11.8318 4.05476 11.739 3.96181L11.385 3.60781C10.8748 3.0969 10.2687 2.69184 9.60144 2.41589C8.93421 2.13993 8.21904 1.99854 7.497 1.99981Z" fill="black" fill-opacity="0.8"/>
</svg>
