<svg width="21" height="21" viewBox="0 0 21 21" fill="none" xmlns="http://www.w3.org/2000/svg">
<path d="M6.66568 19.5516H14.3343C14.8735 19.5532 15.394 19.3536 15.7938 18.9917C16.1936 18.6298 16.4439 18.1317 16.4958 17.595L17.7377 5.14056C17.748 5.03987 17.737 4.93816 17.7054 4.84201C17.6738 4.74585 17.6224 4.6574 17.5545 4.58238C17.4866 4.50735 17.4037 4.44743 17.3111 4.40649C17.2185 4.36556 17.1184 4.34451 17.0172 4.34473H3.98275C3.88161 4.34474 3.7816 4.36593 3.68915 4.40694C3.5967 4.44796 3.51388 4.50788 3.446 4.58285C3.37812 4.65783 3.3267 4.74619 3.29505 4.84224C3.26339 4.9383 3.25222 5.03992 3.26223 5.14056L4.50412 17.5943C4.55605 18.1311 4.80639 18.6292 5.20615 18.9912C5.60592 19.3532 6.12636 19.553 6.66568 19.5516ZM16.2178 5.793L15.0548 17.4509C15.0373 17.6298 14.9539 17.7957 14.8206 17.9164C14.6874 18.037 14.514 18.1037 14.3343 18.1033H6.66568C6.48595 18.1037 6.31256 18.037 6.17934 17.9164C6.04612 17.7957 5.96263 17.6298 5.94516 17.4509L4.78219 5.793H16.2178Z" fill="#FF4D4D"/>
<path d="M2.17245 5.793H18.8276C19.0197 5.793 19.2039 5.71671 19.3397 5.58091C19.4755 5.4451 19.5518 5.26092 19.5518 5.06886C19.5518 4.87681 19.4755 4.69262 19.3397 4.55682C19.2039 4.42102 19.0197 4.34473 18.8276 4.34473H2.17245C1.98039 4.34473 1.79621 4.42102 1.6604 4.55682C1.5246 4.69262 1.44831 4.87681 1.44831 5.06886C1.44831 5.26092 1.5246 5.4451 1.6604 5.58091C1.79621 5.71671 1.98039 5.793 2.17245 5.793ZM10.5 16.6551C10.6921 16.6551 10.8763 16.5788 11.0121 16.443C11.1479 16.3072 11.2242 16.123 11.2242 15.9309V7.96542C11.2242 7.77336 11.1479 7.58918 11.0121 7.45337C10.8763 7.31757 10.6921 7.24128 10.5 7.24128C10.308 7.24128 10.1238 7.31757 9.98799 7.45337C9.85219 7.58918 9.7759 7.77336 9.7759 7.96542V15.9309C9.7759 16.123 9.85219 16.3072 9.98799 16.443C10.1238 16.5788 10.308 16.6551 10.5 16.6551ZM13.0352 16.6551C13.2159 16.6549 13.39 16.5872 13.5233 16.4653C13.6566 16.3434 13.7395 16.176 13.7558 15.9961L14.4799 8.03059C14.4972 7.83942 14.4379 7.64919 14.315 7.50173C14.1921 7.35427 14.0157 7.26163 13.8246 7.24417C13.6333 7.22726 13.4431 7.28679 13.2956 7.40974C13.1481 7.53269 13.0552 7.70904 13.0374 7.90024L12.3133 15.8658C12.3042 15.966 12.3162 16.067 12.3483 16.1624C12.3805 16.2578 12.4322 16.3454 12.5001 16.4197C12.5681 16.4939 12.6507 16.5532 12.7429 16.5938C12.835 16.6343 12.9346 16.6552 13.0352 16.6551ZM7.96483 16.6551C8.06548 16.6552 8.16505 16.6343 8.25718 16.5938C8.34932 16.5532 8.43199 16.4939 8.49992 16.4197C8.56786 16.3454 8.61956 16.2578 8.65174 16.1624C8.68391 16.067 8.69585 15.966 8.68679 15.8658L7.96265 7.90024C7.92572 7.50197 7.57814 7.21521 7.17552 7.24417C6.98436 7.26163 6.80795 7.35427 6.68506 7.50173C6.56218 7.64919 6.50287 7.83942 6.52017 8.03059L7.24431 15.9961C7.26057 16.176 7.34349 16.3434 7.4768 16.4653C7.61011 16.5872 7.78417 16.6549 7.96483 16.6551Z" fill="#FF4D4D"/>
<path d="M7.24141 5.79307H13.7587C13.9507 5.79307 14.1349 5.71678 14.2707 5.58097C14.4065 5.44517 14.4828 5.26099 14.4828 5.06893V2.17238C14.4828 1.98033 14.4065 1.79614 14.2707 1.66034C14.1349 1.52454 13.9507 1.44824 13.7587 1.44824H7.24141C7.04936 1.44824 6.86517 1.52454 6.72937 1.66034C6.59356 1.79614 6.51727 1.98033 6.51727 2.17238V5.06893C6.51727 5.26099 6.59356 5.44517 6.72937 5.58097C6.86517 5.71678 7.04936 5.79307 7.24141 5.79307ZM13.0345 4.34479H7.96555V2.89652H13.0345V4.34479Z" fill="#FF4D4D"/>
</svg>
