<svg width="20" height="21" viewBox="0 0 20 21" fill="none" xmlns="http://www.w3.org/2000/svg">
<path d="M18.3383 7.95709L4.33829 0.957091C3.78579 0.6821 3.16191 0.584202 2.55173 0.676743C1.94155 0.769284 1.37475 1.04776 0.928626 1.47421C0.482498 1.90065 0.178747 2.45431 0.058787 3.0597C-0.061173 3.66509 0.00849563 4.29274 0.258294 4.85709L2.65829 10.2271C2.71275 10.3569 2.7408 10.4963 2.7408 10.6371C2.7408 10.7779 2.71275 10.9173 2.65829 11.0471L0.258294 16.4171C0.0549944 16.8738 -0.03095 17.3741 0.00827138 17.8725C0.0474928 18.3708 0.210636 18.8515 0.482876 19.2708C0.755116 19.6901 1.12782 20.0347 1.56712 20.2733C2.00641 20.5119 2.49838 20.637 2.99829 20.6371C3.46653 20.6324 3.92778 20.5231 4.34829 20.3171L18.3483 13.3171C18.8449 13.0673 19.2623 12.6844 19.554 12.2112C19.8457 11.7379 20.0001 11.193 20.0001 10.6371C20.0001 10.0812 19.8457 9.53624 19.554 9.06301C19.2623 8.58979 18.8449 8.20691 18.3483 7.95709H18.3383ZM17.4483 11.5271L3.44829 18.5271C3.26446 18.6154 3.05803 18.6453 2.85668 18.6129C2.65534 18.5806 2.4687 18.4874 2.32181 18.3459C2.17491 18.2045 2.07477 18.0215 2.03482 17.8215C1.99487 17.6215 2.01702 17.4141 2.09829 17.2271L4.48829 11.8571C4.51923 11.7854 4.54595 11.7119 4.56829 11.6371H11.4583C11.7235 11.6371 11.9779 11.5317 12.1654 11.3442C12.3529 11.1567 12.4583 10.9023 12.4583 10.6371C12.4583 10.3719 12.3529 10.1175 12.1654 9.92999C11.9779 9.74245 11.7235 9.63709 11.4583 9.63709H4.56829C4.54595 9.56226 4.51923 9.4888 4.48829 9.41709L2.09829 4.04709C2.01702 3.86005 1.99487 3.65264 2.03482 3.45266C2.07477 3.25268 2.17491 3.06969 2.32181 2.92824C2.4687 2.78678 2.65534 2.69362 2.85668 2.66124C3.05803 2.62887 3.26446 2.65882 3.44829 2.74709L17.4483 9.74709C17.6121 9.83101 17.7496 9.9585 17.8456 10.1155C17.9415 10.2726 17.9923 10.453 17.9923 10.6371C17.9923 10.8211 17.9415 11.0016 17.8456 11.1586C17.7496 11.3157 17.6121 11.4432 17.4483 11.5271Z" fill="#999999"/>
</svg>
