<svg width="20" height="20" viewBox="0 0 20 20" fill="none" xmlns="http://www.w3.org/2000/svg">
<g id="Account">
<path id="Vector" d="M13.0917 10.5917C13.9087 9.94891 14.505 9.06746 14.7977 8.06997C15.0904 7.07249 15.0649 6.00858 14.7248 5.02625C14.3847 4.04391 13.7469 3.19202 12.9001 2.58907C12.0532 1.98612 11.0395 1.66211 10 1.66211C8.96045 1.66211 7.94676 1.98612 7.09994 2.58907C6.25312 3.19202 5.61528 4.04391 5.27517 5.02625C4.93506 6.00858 4.90959 7.07249 5.2023 8.06997C5.49501 9.06746 6.09134 9.94891 6.90833 10.5917C5.5084 11.1526 4.2869 12.0828 3.37407 13.2833C2.46125 14.4838 1.8913 15.9094 1.725 17.4084C1.71296 17.5178 1.72259 17.6285 1.75335 17.7342C1.78411 17.8399 1.83539 17.9386 1.90426 18.0245C2.04335 18.1979 2.24565 18.309 2.46666 18.3334C2.68768 18.3577 2.9093 18.2932 3.08277 18.1541C3.25624 18.015 3.36735 17.8127 3.39166 17.5917C3.57465 15.9627 4.3514 14.4582 5.57351 13.3657C6.79562 12.2732 8.37741 11.6692 10.0167 11.6692C11.6559 11.6692 13.2377 12.2732 14.4598 13.3657C15.6819 14.4582 16.4587 15.9627 16.6417 17.5917C16.6643 17.7965 16.762 17.9856 16.9159 18.1225C17.0698 18.2595 17.269 18.3346 17.475 18.3334H17.5667C17.7851 18.3082 17.9848 18.1978 18.1221 18.0261C18.2595 17.8544 18.3234 17.6353 18.3 17.4167C18.1329 15.9135 17.5599 14.4842 16.6424 13.2819C15.7249 12.0795 14.4974 11.1496 13.0917 10.5917ZM10 10C9.34073 10 8.69626 9.80453 8.1481 9.43825C7.59993 9.07198 7.17269 8.55139 6.9204 7.9423C6.66811 7.33321 6.6021 6.66299 6.73071 6.01639C6.85933 5.36979 7.1768 4.77584 7.64297 4.30967C8.10915 3.84349 8.70309 3.52602 9.3497 3.39741C9.9963 3.26879 10.6665 3.3348 11.2756 3.58709C11.8847 3.83938 12.4053 4.26662 12.7716 4.81479C13.1378 5.36295 13.3333 6.00742 13.3333 6.66669C13.3333 7.55074 12.9821 8.39859 12.357 9.02371C11.7319 9.64883 10.8841 10 10 10Z" fill="black"/>
</g>
</svg>
