<svg width="26" height="21" viewBox="0 0 26 21" fill="none" xmlns="http://www.w3.org/2000/svg">
<path id="Vector" d="M13.338 2.23432C11.4489 2.23432 9.68245 2.527 8.03872 3.11237C6.395 3.69773 5.08928 4.48735 4.12157 5.48121C3.15386 6.47507 2.67 7.54895 2.67 8.70284C2.67 9.64616 3.00106 10.5453 3.66318 11.4002C4.3253 12.255 5.25828 12.9941 6.46214 13.6174L7.67062 14.2491L7.29558 15.4619C7.07333 16.2284 6.74921 16.9527 6.32323 17.6349C7.73082 17.1043 9.00412 16.3842 10.1432 15.4746L10.7405 14.9945L11.5322 15.0703C12.1712 15.1377 12.7731 15.1714 13.338 15.1714C15.2271 15.1714 16.9935 14.8787 18.6373 14.2933C20.281 13.7079 21.5867 12.9183 22.5544 11.9245C23.5221 10.9306 24.006 9.85672 24.006 8.70284C24.006 7.54895 23.5221 6.47507 22.5544 5.48121C21.5867 4.48735 20.281 3.69773 18.6373 3.11237C16.9935 2.527 15.2271 2.23432 13.338 2.23432ZM25.784 8.70284C25.784 10.1684 25.2284 11.5223 24.1171 12.7646C23.0059 14.0069 21.4964 14.9882 19.5888 15.7083C17.6811 16.4284 15.5975 16.7885 13.338 16.7885C12.6898 16.7885 12.0184 16.7548 11.3239 16.6874C9.4903 18.1614 7.3604 19.1805 4.93417 19.7448C4.48041 19.8627 3.95257 19.9554 3.35064 20.0227H3.28119C3.14228 20.0227 3.01726 19.9785 2.90614 19.8901C2.79501 19.8016 2.72093 19.6858 2.68389 19.5427V19.53C2.65611 19.4963 2.65379 19.4458 2.67694 19.3784C2.70009 19.311 2.70936 19.2689 2.70472 19.2521C2.70009 19.2352 2.72093 19.1952 2.76723 19.1321L2.85058 19.0184L2.94781 18.911L3.05894 18.7973C3.12376 18.7299 3.2673 18.5846 3.48955 18.3614C3.7118 18.1382 3.87154 17.9782 3.96877 17.8813C4.06601 17.7844 4.20954 17.6181 4.39938 17.3823C4.58922 17.1464 4.7397 16.9317 4.85083 16.7379C4.96195 16.5442 5.08697 16.2958 5.22587 15.9926C5.36478 15.6893 5.48517 15.3693 5.58703 15.0324C4.13314 14.2828 2.98717 13.3563 2.1491 12.2529C1.31103 11.1496 0.891998 9.96622 0.891998 8.70284C0.891998 7.23731 1.44762 5.88339 2.55887 4.64106C3.67012 3.39873 5.17957 2.41751 7.08722 1.69738C8.99486 0.977251 11.0785 0.617188 13.338 0.617188C15.5975 0.617188 17.6811 0.977251 19.5888 1.69738C21.4964 2.41751 23.0059 3.39873 24.1171 4.64106C25.2284 5.88339 25.784 7.23731 25.784 8.70284Z" fill="black" fill-opacity="0.8"/>
</svg>
