<svg width="22" height="23" viewBox="0 0 22 23" fill="none" xmlns="http://www.w3.org/2000/svg">
<g id="&#240;&#159;&#166;&#134; icon &#34;share&#34;">
<path id="Vector" d="M16.5001 14.1498C15.7799 14.1505 15.0887 14.4417 14.5751 14.9611L7.33338 11.6406C7.33338 11.5274 7.33338 11.4331 7.33338 11.3199C7.33338 11.2067 7.33338 11.1123 7.33338 11.0086L14.5751 7.67863C15.0286 8.13616 15.6221 8.41801 16.2547 8.47631C16.8873 8.53462 17.5201 8.36578 18.0454 7.99848C18.5708 7.63117 18.9564 7.08805 19.1368 6.46135C19.3172 5.83465 19.2812 5.16301 19.035 4.56052C18.7888 3.95802 18.3475 3.4618 17.7861 3.15615C17.2246 2.85049 16.5777 2.75424 15.9552 2.88375C15.3326 3.01325 14.7728 3.36053 14.3709 3.86659C13.9689 4.37265 13.7495 5.0063 13.7501 5.65991V5.98064L6.50838 9.30115C6.12188 8.91038 5.63182 8.64581 5.09971 8.54066C4.5676 8.43551 4.01717 8.49447 3.51751 8.71012C3.01785 8.92578 2.59123 9.28852 2.2912 9.75282C1.99118 10.2171 1.83112 10.7623 1.83112 11.3199C1.83112 11.8774 1.99118 12.4226 2.2912 12.8869C2.59123 13.3512 3.01785 13.7139 3.51751 13.9296C4.01717 14.1453 4.5676 14.2042 5.09971 14.0991C5.63182 13.9939 6.12188 13.7293 6.50838 13.3386L13.7501 16.6685V16.9798C13.7501 17.5395 13.9113 18.0867 14.2135 18.5521C14.5157 19.0175 14.9452 19.3802 15.4477 19.5944C15.9502 19.8086 16.5031 19.8646 17.0365 19.7554C17.57 19.6462 18.06 19.3767 18.4446 18.9809C18.8292 18.5851 19.0911 18.0809 19.1972 17.5319C19.3033 16.983 19.2489 16.4139 19.0407 15.8968C18.8326 15.3797 18.4801 14.9377 18.0279 14.6268C17.5756 14.3158 17.044 14.1498 16.5001 14.1498Z" fill="#231F20" fill-opacity="0.8"/>
</g>
</svg>
